# xmcd
#
# Track frame offsets: 
#        150
#        17433
#        39508
#        51966
#        67530
#        82462
#        100649
#        119761
#        135533
#        148637
#        163202
#        177948
#        195790
#        209872
#        223542
#        238227
#        250562
#
# Disc length: 3363 seconds
#
# Revision: 0
# Processed by: cddbd v1.5.2PL0 Copyright (c) Steve Scherf et al.
# Submitted via: ExactAudioCopy v0.95b3
#
DISCID=f30d2111
DTITLE=David Bowie  - The Rise And Rise Of Ziggy Stardust Volume 4  FL
DTITLE=AC
DYEAR=1900
DGENRE=
TTITLE0=White Light White Heat
TTITLE1=Moonage Daydream
TTITLE2=Hang Onto Yourself
TTITLE3=Suffragette City
TTITLE4=Ziggy Stardust
TTITLE5=Starman
TTITLE6=Space Oddity
TTITLE7=Changes
TTITLE8=Oh! You Pretty Things
TTITLE9=Andy Warhol
TTITLE10=Lady Stardust
TTITLE11=White Light White Heat
TTITLE12=Rock 'n' Roll Suicide
TTITLE13=John, I'm Only Dancing
TTITLE14=Lady Stardust
TTITLE15=Star
TTITLE16=Tommy Vance
EXTD=
EXTT0=
EXTT1=
EXTT2=
EXTT3=
EXTT4=
EXTT5=
EXTT6=
EXTT7=
EXTT8=
EXTT9=
EXTT10=
EXTT11=
EXTT12=
EXTT13=
EXTT14=
EXTT15=
EXTT16=
PLAYORDER=
